<svg fill="#000075" xmlns="http://www.w3.org/2000/svg"  viewBox="0 0 48 48" width="480px" height="480px"><path d="M 30.841797 5.0019531 C 27.660142 4.9648973 24.470437 6.1538173 22.046875 8.578125 C 18.850723 11.774277 17.888708 16.292583 18.962891 20.378906 C 14.735674 24.606997 7.3647254 31.977071 6.7929688 32.548828 C 4.4146441 34.927153 4.4146442 38.828707 6.7929688 41.207031 C 9.1712933 43.585356 13.072847 43.585356 15.451172 41.207031 L 27.621094 29.037109 C 31.707347 30.111176 36.225793 29.149207 39.421875 25.953125 C 43.114857 22.260143 43.939807 16.785796 41.931641 12.275391 A 1.50015 1.50015 0 0 0 39.5 11.826172 L 32.941406 18.384766 C 32.010755 19.315417 30.547076 19.315988 29.615234 18.384766 C 28.685047 17.454579 28.685405 15.990502 29.615234 15.058594 L 29.615234 15.056641 L 36.173828 8.4980469 A 1.50015 1.50015 0 0 0 35.722656 6.0683594 C 34.59524 5.5662735 33.40822 5.2411151 32.203125 5.09375 C 31.751214 5.0384881 31.296319 5.0072468 30.841797 5.0019531 z M 30.816406 7.9980469 C 31.159439 8.0027419 31.502606 8.0259338 31.84375 8.0683594 C 31.982174 8.0855744 32.110315 8.1582254 32.248047 8.1816406 L 27.494141 12.935547 A 1.50015 1.50015 0 0 0 27.492188 12.9375 C 25.415409 15.015658 25.416745 18.42851 27.494141 20.505859 C 29.572299 22.582637 32.985151 22.583208 35.0625 20.505859 L 39.818359 15.75 C 40.304089 18.604041 39.511654 21.621159 37.300781 23.832031 C 34.674605 26.458208 30.89236 27.165512 27.621094 26.003906 A 1.50015 1.50015 0 0 0 26.058594 26.355469 L 13.330078 39.085938 C 12.098403 40.317613 10.145738 40.317613 8.9140625 39.085938 C 7.682387 37.854261 7.682387 35.901597 8.9140625 34.669922 C 9.5120625 34.071922 17.544409 26.040575 21.642578 21.941406 A 1.50015 1.50015 0 0 0 21.996094 20.378906 C 20.834488 17.10764 21.541792 13.325395 24.167969 10.699219 C 26.008719 8.8579012 28.415175 7.9651817 30.816406 7.9980469 z"/></svg>