<svg xmlns="http://www.w3.org/2000/svg" width="40" height="40" viewBox="0 0 40 40"><path d="M24,4A20,20,0,1,0,44,24,20.023,20.023,0,0,0,24,4Zm0,3A17,17,0,1,1,7,24,16.977,16.977,0,0,1,24,7Zm-.523,3.979A1.5,1.5,0,0,0,22,12.5v1.152a5.708,5.708,0,0,0-5,5.6A5.773,5.773,0,0,0,22.75,25h2a3.25,3.25,0,0,1,0,6.5H22.5a2.491,2.491,0,0,1-2.42-1.867,1.5,1.5,0,1,0-2.9.756A5.478,5.478,0,0,0,22,34.416V35.5a1.5,1.5,0,1,0,3,0V34.449A6.227,6.227,0,0,0,24.75,22h-2a2.75,2.75,0,0,1,0-5.5h.5a1.5,1.5,0,0,0,.486,0h.76a2.492,2.492,0,0,1,2.414,1.846,1.5,1.5,0,0,0,2.9-.783A5.478,5.478,0,0,0,25,13.584V12.5a1.5,1.5,0,0,0-1.523-1.521Z" transform="translate(-4 -4)" fill="#000074"/></svg>