<svg xmlns="http://www.w3.org/2000/svg" width="78" height="78" viewBox="0 0 78 78"><g transform="translate(3338 -1927)"><rect width="78" height="78" rx="39" transform="translate(-3338 1927)" fill="#fff"/><path d="M11.948,4A3.953,3.953,0,0,0,8,7.948v27.2a3.953,3.953,0,0,0,3.948,3.948H27.16a12.049,12.049,0,0,1-1.906-2.632H11.948a1.318,1.318,0,0,1-1.316-1.316V7.948a1.318,1.318,0,0,1,1.316-1.316h10.09V14.09a3.953,3.953,0,0,0,3.948,3.948h7.458v.877A2.631,2.631,0,0,1,35.55,19.95a5.314,5.314,0,0,0,.526.6v-3.83a1.312,1.312,0,0,0-.386-.93L24.284,4.386A1.312,1.312,0,0,0,23.354,4ZM24.67,8.493l6.913,6.913h-5.6A1.318,1.318,0,0,1,24.67,14.09ZM33.444,20.67a.872.872,0,0,0-.7.332,8.662,8.662,0,0,1-6.316,3.158.878.878,0,0,0-.877.877v5.283a10.707,10.707,0,0,0,7.684,10.5.891.891,0,0,0,.425,0,10.707,10.707,0,0,0,7.684-10.5V25.038a.879.879,0,0,0-.874-.877A8.663,8.663,0,0,1,34.146,21,.872.872,0,0,0,33.444,20.67Z" transform="translate(-3321.1 1944.464)" fill="#000074"/></g></svg>