<svg xmlns="http://www.w3.org/2000/svg" width="78" height="78" viewBox="0 0 78 78"><g transform="translate(3174 -2073)"><rect width="78" height="78" rx="39" transform="translate(-3174 2073)" fill="#fff"/><path d="M34.423,5.3a2.966,2.966,0,0,0-1.1.158l-16.8,5.728q-.046.008-.091.019l-7.965.613A4.848,4.848,0,0,0,4,16.637V23.31a4.848,4.848,0,0,0,4.462,4.817q.051,0,.1,0H7.388l.784,7.06a3.637,3.637,0,0,0,7.252-.4V28.662l1.05.081,16.847,5.744h0a3.11,3.11,0,0,0,4.067-2.912V23.666a3.509,3.509,0,0,0,0-6.508V8.369a3.119,3.119,0,0,0-2.609-3.027A3,3,0,0,0,34.423,5.3ZM34.4,7.926a.408.408,0,0,1,.355.446v23.2a.412.412,0,0,1-.582.417l-17.007-5.8a1.318,1.318,0,0,0-.324-.067l-2.636-.2a1.318,1.318,0,0,0-1.418,1.315v7.549a1,1,0,0,1-2,.112l-.915-8.231A1.318,1.318,0,0,0,8.664,25.5a2.18,2.18,0,0,1-2.028-2.19V16.637a2.18,2.18,0,0,1,2.028-2.19l6.758-.518V22.17a1.318,1.318,0,1,0,2.636,0V13.449L34.173,7.955A.531.531,0,0,1,34.4,7.926ZM29.435,16.46a3.056,3.056,0,0,0-2.267.9l-.323.323-.323-.323a2.928,2.928,0,0,0-3.676-.434,2.857,2.857,0,0,0-.438,4.4l3.523,3.523a1.291,1.291,0,0,0,1.826,0l3.523-3.523a2.859,2.859,0,0,0-.438-4.4A2.7,2.7,0,0,0,29.435,16.46Z" transform="translate(-3156.476 2089.997)" fill="#000074"/></g></svg>