<svg xmlns="http://www.w3.org/2000/svg" width="78" height="78" viewBox="0 0 78 78"><g transform="translate(3338 -2073)"><rect width="78" height="78" rx="39" transform="translate(-3338 2073)" fill="#fff"/><path d="M14.1,3a3.1,3.1,0,0,0-3.075,3.075V13.1A3.1,3.1,0,0,0,14.1,16.18h3.556l2.051,3.278a2.236,2.236,0,0,0,3.724,0l2.051-3.276h3.556A3.1,3.1,0,0,0,32.118,13.1V6.075A3.1,3.1,0,0,0,29.042,3Zm0,2.636H29.042a.421.421,0,0,1,.439.439V13.1a.421.421,0,0,1-.439.439H24.755a1.318,1.318,0,0,0-1.117.62l-2.065,3.3-2.066-3.3a1.318,1.318,0,0,0-1.117-.62H14.1a.421.421,0,0,1-.439-.439V6.075A.421.421,0,0,1,14.1,5.636Zm-2.2,12.3a5.233,5.233,0,0,0-3.951,1.678,5.547,5.547,0,0,0,0,7.187,5.233,5.233,0,0,0,3.951,1.678A5.233,5.233,0,0,0,15.859,26.8a5.547,5.547,0,0,0,0-7.187A5.233,5.233,0,0,0,11.908,17.938Zm19.331,0a5.233,5.233,0,0,0-3.951,1.678,5.547,5.547,0,0,0,0,7.187,5.489,5.489,0,0,0,7.9,0,5.547,5.547,0,0,0,0-7.187A5.233,5.233,0,0,0,31.239,17.938ZM11.908,20.574a2.429,2.429,0,0,1,1.98.793,2.919,2.919,0,0,1,0,3.686,2.429,2.429,0,0,1-1.98.793,2.429,2.429,0,0,1-1.98-.793,2.919,2.919,0,0,1,0-3.686A2.429,2.429,0,0,1,11.908,20.574Zm19.331,0a2.429,2.429,0,0,1,1.98.793,2.919,2.919,0,0,1,0,3.686,2.429,2.429,0,0,1-1.98.793,2.429,2.429,0,0,1-1.98-.793,2.919,2.919,0,0,1,0-3.686A2.429,2.429,0,0,1,31.239,20.574ZM7.075,30.239A3.1,3.1,0,0,0,4,33.314v2.2a4.739,4.739,0,0,0,2.571,3.927,10.414,10.414,0,0,0,5.337,1.345,10.414,10.414,0,0,0,5.337-1.345,4.739,4.739,0,0,0,2.571-3.927v-2.2a3.1,3.1,0,0,0-3.075-3.075Zm19.331,0a3.1,3.1,0,0,0-3.075,3.075v2.2A4.739,4.739,0,0,0,25.9,39.438a10.414,10.414,0,0,0,5.337,1.345,10.414,10.414,0,0,0,5.337-1.345,4.739,4.739,0,0,0,2.571-3.927v-2.2a3.1,3.1,0,0,0-3.075-3.075ZM7.075,32.875h9.665a.42.42,0,0,1,.439.439v2.2c0,.5-.352,1.1-1.291,1.666a8,8,0,0,1-3.982.97,8,8,0,0,1-3.982-.97c-.939-.563-1.291-1.168-1.291-1.666v-2.2A.42.42,0,0,1,7.075,32.875Zm19.331,0h9.665a.42.42,0,0,1,.439.439v2.2c0,.5-.352,1.1-1.291,1.666a8,8,0,0,1-3.982.97,8,8,0,0,1-3.982-.97c-.939-.563-1.291-1.168-1.291-1.666v-2.2A.42.42,0,0,1,26.406,32.875Z" transform="translate(-3320.574 2090.108)" fill="#000074"/></g></svg>