<svg xmlns="http://www.w3.org/2000/svg" width="78" height="78" viewBox="0 0 78 78"><g transform="translate(3174 -1927)"><rect width="78" height="78" rx="39" transform="translate(-3174 1927)" fill="#fff"/><path d="M35.435,5.986A1.32,1.32,0,0,0,35.294,6H28.425a1.319,1.319,0,1,0,0,2.638h3.851L27,13.913H24.028a1.319,1.319,0,0,0-1.132.641L20.643,18.31h-3.65a1.319,1.319,0,0,0-1.132.641l-2.254,3.756H9.957a1.319,1.319,0,0,0-1.132.641l-2.638,4.4A1.32,1.32,0,1,0,8.451,29.1L10.7,25.346h3.65a1.319,1.319,0,0,0,1.132-.641l2.254-3.756h3.65a1.319,1.319,0,0,0,1.132-.641l2.254-3.756h2.771a1.319,1.319,0,0,0,.932-.386L34.142,10.5v3.851a1.319,1.319,0,1,0,2.638,0V7.47a1.319,1.319,0,0,0-1.345-1.484Zm.005,12.305a1.319,1.319,0,0,0-1.3,1.338V36.338a1.319,1.319,0,1,0,2.638,0V19.629a1.319,1.319,0,0,0-1.34-1.338ZM28.4,20.05a1.319,1.319,0,0,0-1.3,1.338v14.95a1.319,1.319,0,1,0,2.638,0V21.388A1.319,1.319,0,0,0,28.4,20.05Zm-7.035,3.518a1.319,1.319,0,0,0-1.3,1.338V36.338a1.319,1.319,0,1,0,2.638,0V24.906a1.319,1.319,0,0,0-1.34-1.338Zm-7.035,4.4a1.319,1.319,0,0,0-1.3,1.338v7.035a1.319,1.319,0,1,0,2.638,0V29.3a1.319,1.319,0,0,0-1.34-1.338ZM7.3,33.242A1.319,1.319,0,0,0,6,34.58v1.759a1.319,1.319,0,1,0,2.638,0V34.58A1.319,1.319,0,0,0,7.3,33.242Z" transform="translate(-3156.888 1944.194)" fill="#000074"/></g></svg>