<svg xmlns="http://www.w3.org/2000/svg" width="40" height="36" viewBox="0 0 40 36"><path d="M24,6a5.956,5.956,0,0,0-4.5,1.91A6.13,6.13,0,0,0,18,12a6.13,6.13,0,0,0,1.5,4.09A5.956,5.956,0,0,0,24,18a5.956,5.956,0,0,0,4.5-1.91A6.13,6.13,0,0,0,30,12a6.13,6.13,0,0,0-1.5-4.09A5.956,5.956,0,0,0,24,6ZM11,8A4.989,4.989,0,0,0,7.254,9.6a5.243,5.243,0,0,0,0,6.8A4.989,4.989,0,0,0,11,18a4.989,4.989,0,0,0,3.746-1.6,5.243,5.243,0,0,0,0-6.8A4.989,4.989,0,0,0,11,8ZM37,8a4.989,4.989,0,0,0-3.746,1.6,5.243,5.243,0,0,0,0,6.8,5.191,5.191,0,0,0,7.492,0,5.243,5.243,0,0,0,0-6.8A4.989,4.989,0,0,0,37,8ZM24,9a2.764,2.764,0,0,1,2.254.9,3.322,3.322,0,0,1,0,4.2A2.764,2.764,0,0,1,24,15a2.764,2.764,0,0,1-2.254-.9,3.322,3.322,0,0,1,0-4.2A2.764,2.764,0,0,1,24,9ZM11,11a1.8,1.8,0,0,1,1.5.59,2.252,2.252,0,0,1,0,2.82A1.8,1.8,0,0,1,11,15a1.8,1.8,0,0,1-1.5-.59,2.252,2.252,0,0,1,0-2.82A1.8,1.8,0,0,1,11,11Zm26,0a1.8,1.8,0,0,1,1.5.59,2.252,2.252,0,0,1,0,2.82,2.212,2.212,0,0,1-3.008,0,2.252,2.252,0,0,1,0-2.82A1.8,1.8,0,0,1,37,11ZM7.5,20A3.5,3.5,0,0,0,4,23.5V30a8.011,8.011,0,0,0,8,8,7.817,7.817,0,0,0,2.061-.27,11.168,11.168,0,0,1-.9-2.871A4.914,4.914,0,0,1,12,35a5,5,0,0,1-5-5V23.5a.5.5,0,0,1,.5-.5h5.529a5.405,5.405,0,0,1,1.23-3Zm11,0A3.523,3.523,0,0,0,15,23.5V33a9,9,0,0,0,18,0V23.5A3.523,3.523,0,0,0,29.5,20Zm15.24,0a5.405,5.405,0,0,1,1.23,3H40.5a.5.5,0,0,1,.5.5V30a5,5,0,0,1-5,5,4.914,4.914,0,0,1-1.16-.141,11.168,11.168,0,0,1-.9,2.871A7.817,7.817,0,0,0,36,38a8.011,8.011,0,0,0,8-8V23.5A3.5,3.5,0,0,0,40.5,20ZM18.5,23h11a.478.478,0,0,1,.5.5V33a6,6,0,0,1-12,0V23.5A.478.478,0,0,1,18.5,23Z" transform="translate(-4 -6)" fill="#000074"/></svg>