<svg xmlns="http://www.w3.org/2000/svg" width="78" height="78" viewBox="0 0 78 78">
  <g id="Raggruppa_242" data-name="Raggruppa 242" transform="translate(-2545 18781)">
    <path id="icons8-stocks-growth-480" d="M35.477,5.979A1.5,1.5,0,0,0,34,7.5v.727a4.728,4.728,0,0,0-3.5,4.506v0A4.789,4.789,0,0,0,35.266,17.5h1.469a1.765,1.765,0,0,1,.014,3.529l-1.84.016a1.4,1.4,0,0,1-1.344-.984,1.5,1.5,0,1,0-2.862.9A4.307,4.307,0,0,0,34,23.744V24.5a1.5,1.5,0,1,0,3,0v-.518a4.744,4.744,0,0,0-.266-9.482H35.266A1.744,1.744,0,0,1,33.5,12.734v0a1.744,1.744,0,0,1,1.74-1.766l.824-.012a1.4,1.4,0,0,1,1.348.994,1.5,1.5,0,1,0,2.869-.877A4.3,4.3,0,0,0,37,8.268V7.5a1.5,1.5,0,0,0-1.523-1.521ZM23.471,12.986a1.5,1.5,0,0,0-.162.014H15.5a1.5,1.5,0,1,0,0,3h4.379L6.439,29.439a1.5,1.5,0,1,0,2.121,2.121L22,18.121V22.5a1.5,1.5,0,1,0,3,0V14.689a1.5,1.5,0,0,0-1.529-1.7Zm.006,14.992A1.5,1.5,0,0,0,22,29.5v11a1.5,1.5,0,1,0,3,0v-11a1.5,1.5,0,0,0-1.523-1.521Zm8,0A1.5,1.5,0,0,0,30,29.5v11a1.5,1.5,0,1,0,3,0v-11a1.5,1.5,0,0,0-1.523-1.521Zm8,0A1.5,1.5,0,0,0,38,29.5v11a1.5,1.5,0,1,0,3,0v-11a1.5,1.5,0,0,0-1.523-1.521Zm-24,5A1.5,1.5,0,0,0,14,34.5v6a1.5,1.5,0,1,0,3,0v-6a1.5,1.5,0,0,0-1.523-1.521Zm-8,5A1.5,1.5,0,0,0,6,39.5v1a1.5,1.5,0,1,0,3,0v-1a1.5,1.5,0,0,0-1.523-1.521Z" transform="translate(2560.25 -18765.988)" fill="#000075"/>
    <g id="Rettangolo_19249" data-name="Rettangolo 19249" transform="translate(2545 -18781)" fill="none" stroke="#000075" stroke-width="1">
      <rect width="78" height="78" rx="16" stroke="none"/>
      <rect x="0.5" y="0.5" width="77" height="77" rx="15.5" fill="none"/>
    </g>
  </g>
</svg>
