<svg xmlns="http://www.w3.org/2000/svg" width="78" height="78" viewBox="0 0 78 78">
  <g id="Raggruppa_241" data-name="Raggruppa 241" transform="translate(-2457 18781)">
    <path id="icons8-statistics-480" d="M23.977,2.979A1.5,1.5,0,0,0,22.5,4.5V6H4.5a1.5,1.5,0,1,0,0,3H5V30.5A5.523,5.523,0,0,0,10.5,36h6.074l-3.416,6.83a1.5,1.5,0,1,0,2.684,1.34L19.926,36h8.148l4.084,8.17a1.5,1.5,0,1,0,2.684-1.34L31.426,36H37.5A5.523,5.523,0,0,0,43,30.5V9h.5a1.5,1.5,0,1,0,0-3h-18V4.5a1.5,1.5,0,0,0-1.523-1.521ZM8,9H23.754a1.5,1.5,0,0,0,.486,0H40V30.5A2.478,2.478,0,0,1,37.5,33H29.219a1.371,1.371,0,0,0-.467,0h-9.5a1.443,1.443,0,0,0-.477,0H10.5A2.478,2.478,0,0,1,8,30.5Zm26.471,4.986a1.5,1.5,0,0,0-1.031.453L23.5,24.379l-3.939-3.939a1.5,1.5,0,0,0-2.121,0l-5,5a1.5,1.5,0,1,0,2.121,2.121l3.939-3.94,3.939,3.939a1.5,1.5,0,0,0,2.121,0l11-11a1.5,1.5,0,0,0-1.09-2.574Z" transform="translate(2472 -18766.004)" fill="#000075"/>
    <g id="Rettangolo_19248" data-name="Rettangolo 19248" transform="translate(2457 -18781)" fill="none" stroke="#000075" stroke-width="1">
      <rect width="78" height="78" rx="16" stroke="none"/>
      <rect x="0.5" y="0.5" width="77" height="77" rx="15.5" fill="none"/>
    </g>
  </g>
</svg>
