<svg xmlns="http://www.w3.org/2000/svg" width="78" height="78" viewBox="0 0 78 78">
  <g id="Raggruppa_239" data-name="Raggruppa 239" transform="translate(-2485 19110)">
    <path id="icons8-shop-480" d="M12,5a1.5,1.5,0,0,0-1.018.4l-6.5,6A1.5,1.5,0,0,0,4,12.5v4a7.361,7.361,0,0,0,2,5.025V42.5A1.5,1.5,0,0,0,7.5,44h33A1.5,1.5,0,0,0,42,42.5V21.527A7.361,7.361,0,0,0,44,16.5v-4h0a1.5,1.5,0,0,0-.48-1.1l-6.5-6A1.5,1.5,0,0,0,36,5Zm.586,3H35.414l3.25,3H9.336ZM7,14h9.332v2.5s0,.008,0,.012A4.562,4.562,0,0,1,11.668,21,4.564,4.564,0,0,1,7,16.5Zm12.334,0h9.334v2.5a4.67,4.67,0,0,1-9.334.012s0-.008,0-.012Zm12.334,0H41v2.5a4.67,4.67,0,0,1-9.334,0Zm-1.5,6.707A7.6,7.6,0,0,0,36.334,24,7.728,7.728,0,0,0,39,23.52V41H23V28.5A1.5,1.5,0,0,0,21.5,27h-8A1.5,1.5,0,0,0,12,28.5V41H9V23.52a7.7,7.7,0,0,0,8.832-2.588A7.728,7.728,0,0,0,24,24,7.6,7.6,0,0,0,30.168,20.707ZM27.5,27A1.5,1.5,0,0,0,26,28.5v7A1.5,1.5,0,0,0,27.5,37h7A1.5,1.5,0,0,0,36,35.5v-7A1.5,1.5,0,0,0,34.5,27ZM15,30h5V41H15Zm14,0h4v4H29Z" transform="translate(2499.999 -19095.5)" fill="#000075"/>
    <g id="Rettangolo_19247" data-name="Rettangolo 19247" transform="translate(2485 -19110)" fill="none" stroke="#000075" stroke-width="1">
      <rect width="78" height="78" rx="16" stroke="none"/>
      <rect x="0.5" y="0.5" width="77" height="77" rx="15.5" fill="none"/>
    </g>
  </g>
</svg>
