<svg xmlns="http://www.w3.org/2000/svg" width="78" height="78" viewBox="0 0 78 78">
  <g id="Raggruppa_240" data-name="Raggruppa 240" transform="translate(-2396 18885)">
    <path id="icons8-trophy-480" d="M17.5,4a4.478,4.478,0,0,0-4.4,4H10.5A3.523,3.523,0,0,0,7,11.5v6A6.523,6.523,0,0,0,13.5,24h.209A11.289,11.289,0,0,0,23,31.7V35H19.5A6.523,6.523,0,0,0,13,41.5v1A1.5,1.5,0,0,0,14.5,44h20A1.5,1.5,0,0,0,36,42.5v-1A6.523,6.523,0,0,0,29.5,35H26V31.7A11.289,11.289,0,0,0,35.291,24H35.5A6.523,6.523,0,0,0,42,17.5v-6A3.523,3.523,0,0,0,38.5,8H35.9a4.478,4.478,0,0,0-4.4-4Zm0,3h14A1.477,1.477,0,0,1,33,8.5v.754a1.5,1.5,0,0,0,0,.486V20.5a8.467,8.467,0,0,1-8.414,8.482,1.5,1.5,0,0,0-.172,0A8.467,8.467,0,0,1,16,20.5V9.746a1.5,1.5,0,0,0,0-.486V8.5A1.477,1.477,0,0,1,17.5,7Zm-7,4H13v9.5c0,.148.078.271.084.418A3.439,3.439,0,0,1,10,17.5v-6A.478.478,0,0,1,10.5,11ZM36,11h2.5a.478.478,0,0,1,.5.5v6a3.439,3.439,0,0,1-3.084,3.418c.006-.147.084-.27.084-.418ZM19.5,38h10a3.433,3.433,0,0,1,3.4,3H16.1A3.433,3.433,0,0,1,19.5,38Z" transform="translate(2411 -18870)" fill="#000075"/>
    <g id="Rettangolo_19250" data-name="Rettangolo 19250" transform="translate(2396 -18885)" fill="none" stroke="#000075" stroke-width="1">
      <rect width="78" height="78" rx="16" stroke="none"/>
      <rect x="0.5" y="0.5" width="77" height="77" rx="15.5" fill="none"/>
    </g>
  </g>
</svg>
