<svg xmlns="http://www.w3.org/2000/svg" width="78" height="78" viewBox="0 0 78 78">
  <g id="Raggruppa_238" data-name="Raggruppa 238" transform="translate(-2389 19110)">
    <g id="Tracciato_41" data-name="Tracciato 41" transform="translate(2389 -19110)" fill="none">
      <path d="M16,0H62A16,16,0,0,1,78,16V62A16,16,0,0,1,62,78H16A16,16,0,0,1,0,62V16A16,16,0,0,1,16,0Z" stroke="none"/>
      <path d="M 16 1 C 11.99335479736328 1 8.226524353027344 2.560279846191406 5.393402099609375 5.393402099609375 C 2.560279846191406 8.226524353027344 1 11.99335479736328 1 16 L 1 62 C 1 66.00664520263672 2.560279846191406 69.77347564697266 5.393402099609375 72.60659790039062 C 8.226524353027344 75.43972015380859 11.99335479736328 77 16 77 L 62 77 C 66.00664520263672 77 69.77347564697266 75.43972015380859 72.60659790039062 72.60659790039062 C 75.43972015380859 69.77347564697266 77 66.00664520263672 77 62 L 77 16 C 77 11.99335479736328 75.43972015380859 8.226524353027344 72.60659790039062 5.393402099609375 C 69.77347564697266 2.560279846191406 66.00664520263672 1 62 1 L 16 1 M 16 0 L 62 0 C 70.83655548095703 0 78 7.163444519042969 78 16 L 78 62 C 78 70.83655548095703 70.83655548095703 78 62 78 L 16 78 C 7.163444519042969 78 0 70.83655548095703 0 62 L 0 16 C 0 7.163444519042969 7.163444519042969 0 16 0 Z" stroke="none" fill="#000075"/>
    </g>
    <path id="icons8-launch-480" d="M24.025,3a1.5,1.5,0,0,0-.492.074A10.869,10.869,0,0,0,16,13.361v7.924a1.5,1.5,0,0,0-.131.119l-5.477,5.475a4.757,4.757,0,0,0,4.3,8.027l1.861-.371a4.559,4.559,0,0,0,2.938,2.334,4.751,4.751,0,0,0-.49,2.1,6.485,6.485,0,0,0,1.326,3.508,27.994,27.994,0,0,0,1.947,2.7,2.257,2.257,0,0,0,3.453,0,28.021,28.021,0,0,0,1.947-2.7A6.48,6.48,0,0,0,29,38.969a4.889,4.889,0,0,0-.488-2.1,4.56,4.56,0,0,0,2.936-2.334l1.863.371a4.757,4.757,0,0,0,4.3-8.027L32.131,21.4A1.5,1.5,0,0,0,32,21.285V13.361A10.869,10.869,0,0,0,24.467,3.074,1.5,1.5,0,0,0,24.025,3ZM24,6.164a7.788,7.788,0,0,1,5,7.2V32.5A1.477,1.477,0,0,1,27.5,34H24.395l-.021,0h-2.18v0H20.5A1.477,1.477,0,0,1,19,32.5V13.361A7.788,7.788,0,0,1,24,6.164ZM24,13a2,2,0,1,0,2,2A2,2,0,0,0,24,13ZM16,25.516v6.07l-1.9.379A1.757,1.757,0,0,1,12.516,29Zm16,0L35.484,29A1.757,1.757,0,0,1,33.9,31.965L32,31.586ZM23.807,37h.387A1.963,1.963,0,0,1,26,38.969a8.377,8.377,0,0,1-.873,1.922c-.362.582-.745,1.056-1.127,1.561-.382-.5-.765-.977-1.127-1.559A8.375,8.375,0,0,1,22,38.969,1.963,1.963,0,0,1,23.807,37Z" transform="translate(2404 -19095.49)" fill="#000075"/>
  </g>
</svg>
